<?xml version="1.0" encoding="UTF-8"?>
<svg version="1.1" xmlns="http://www.w3.org/2000/svg" width="476" height="676">
    <path d="M0 0 C5.45464641 3.88529284 10.42731486 8.1315509 15.3671875 12.6484375 C17.99666032 14.99701708 20.69311033 17.22478696 23.4375 19.4375 C28.211403 23.29825137 32.73388428 27.37437075 37.25 31.53125 C39.93737634 33.94378104 42.68965444 36.2325621 45.5 38.5 C50.25595419 42.33719031 54.75504801 46.39385101 59.25 50.53125 C61.93737634 52.94378104 64.68965444 55.2325621 67.5 57.5 C72.25595419 61.33719031 76.75504801 65.39385101 81.25 69.53125 C83.93737634 71.94378104 86.68965444 74.2325621 89.5 76.5 C94.24450343 80.32795163 98.73477331 84.37192761 103.21484375 88.50390625 C106.95157734 91.85281616 110.8496326 94.97869091 114.78515625 98.08984375 C117 100 117 100 119 103 C95.57 103 72.14 103 48 103 C48 259.75 48 416.5 48 578 C46.35 577.34 44.7 576.68 43 576 C41.21263301 575.30139786 39.42079635 574.6141396 37.625 573.9375 C36.73039063 573.59589844 35.83578125 573.25429688 34.9140625 572.90234375 C26.45658534 570.28347348 17.43453747 570.68900979 8.66210938 570.48242188 C2.2310804 570.28887018 -4.07726692 569.81291301 -10.45141602 568.97631836 C-11.18195442 568.88263725 -11.91249283 568.78895615 -12.66516876 568.69243622 C-14.44375435 568.46401364 -16.22192308 568.23234898 -18 568 C-18.00097681 567.23727411 -18.00195362 566.47454823 -18.00296003 565.68870944 C-18.0611847 520.52090241 -18.13494546 475.3531438 -18.22898628 430.18539641 C-18.24025495 424.76658287 -18.25139332 419.34776906 -18.26245117 413.92895508 C-18.26465486 412.85013008 -18.26685854 411.77130508 -18.269129 410.65978841 C-18.30453753 393.17310182 -18.32938157 375.68641528 -18.35034702 358.1997061 C-18.37208079 340.26749605 -18.40510804 322.33533267 -18.44870156 304.4031623 C-18.47526014 293.33086398 -18.49292449 282.25862386 -18.49934604 271.18629525 C-18.50458709 263.6018958 -18.52076065 256.01756969 -18.54566566 248.4332095 C-18.55972483 244.05215057 -18.5688351 239.67122306 -18.56500816 235.29014015 C-18.56161445 231.28370458 -18.57186645 227.27755038 -18.59323552 223.2711725 C-18.5985327 221.81757177 -18.5987079 220.36394202 -18.59339563 218.91034134 C-18.58693375 216.94256279 -18.60051159 214.97474832 -18.61523914 213.00701427 C-18.61713775 211.91152112 -18.61903635 210.81602797 -18.62099248 209.68733805 C-18.77890915 206.61966253 -18.77890915 206.61966253 -22 204 C-30.25 203.67 -38.5 203.34 -47 203 C-47 170.33 -47 137.66 -47 104 C-70.43 104 -93.86 104 -118 104 C-109.30695998 95.30695998 -100.37928767 86.99296884 -90.77734375 79.30859375 C-87.57557201 76.64720542 -84.53765082 73.84537754 -81.5 71 C-76.76135857 66.56165094 -71.87880421 62.40857547 -66.8125 58.34375 C-63.60150195 55.66791829 -60.54970863 52.85641724 -57.5 50 C-52.76133536 45.56167326 -47.87880674 41.4085775 -42.8125 37.34375 C-39.60150195 34.66791829 -36.54970863 31.85641724 -33.5 29 C-28.77145081 24.57114759 -23.90143486 20.42467941 -18.84375 16.37109375 C-14.86681561 13.05516082 -11.09289508 9.5357313 -7.32617188 5.984375 C-4.96211175 3.76385756 -2.70655574 1.80437049 0 0 Z "
          fill="#0B4A17" transform="translate(298,6)"/>
    <path d="M0 0 C1.29534668 2.59069335 0.87158177 3.86814383 0.44140625 6.72265625 C-9.81406346 80.27666855 9.76290645 153.88161708 53.97680664 213.4675293 C58.47066703 219.38775311 63.39002693 224.87044775 68.46875 230.28515625 C70.59658523 232.5673252 72.65661157 234.88216872 74.6875 237.25 C80.63756246 244.07217564 87.04806161 250.01459423 94.1171875 255.66796875 C95.98391595 257.17804583 97.82484678 258.72082308 99.6328125 260.30078125 C113.58815514 272.44709799 129.58285401 282.51323489 146 291 C146.75087891 291.39106934 147.50175781 291.78213867 148.27539062 292.18505859 C185.2364772 311.20028752 226.20213004 321.42580784 267.72900391 322.23901367 C294.70914822 322.84515067 294.70914822 322.84515067 305 333 C312.8897367 341.31182138 317.13860238 351.47867741 317 363 C316.26027609 372.94664474 313.20574059 382.79425941 306 390 C283.97496225 407.59232575 246.86663966 403.78476424 220.54736328 400.98217773 C218.02722458 400.68124729 215.51384175 400.3495721 213 400 C212.10861328 399.87641113 211.21722656 399.75282227 210.29882812 399.62548828 C160.82740584 392.46515085 113.91217506 372.40988871 75 341 C74.22317871 340.3797998 74.22317871 340.3797998 73.43066406 339.74707031 C57.3199566 326.78477569 41.37218342 311.61225671 29.28808594 294.77978516 C27.84941885 292.79193771 26.36767769 290.84027547 24.8828125 288.88671875 C-3.29544072 251.40613638 -20.29145642 207.21635502 -27 161 C-27.17571533 159.88141602 -27.17571533 159.88141602 -27.35498047 158.74023438 C-35.15539654 108.15923033 -27.21634478 43.91384783 0 0 Z "
          fill="#0B4A17" transform="translate(29,266)"/>
    <path d="M0 0 C31.02 0 62.04 0 94 0 C94 114.18 94 228.36 94 346 C86.59487575 345.17720842 80.31933205 343.94912988 73.25 341.9375 C72.16323975 341.63021973 71.07647949 341.32293945 69.95678711 341.00634766 C57.54768572 337.41026655 45.25801652 333.20532708 33.70678711 327.37548828 C32.82099472 326.92940216 31.93520233 326.48331604 31.02256775 326.02371216 C30.35512039 325.68588715 29.68767303 325.34806213 29 325 C28.99853344 323.83378994 28.99706688 322.66757988 28.99555588 321.46603012 C28.95986756 293.79358224 28.90364626 266.12123826 28.82207905 238.44888596 C28.81206138 235.04421217 28.80221728 231.63953789 28.79248047 228.23486328 C28.7905391 227.55704297 28.78859772 226.87922266 28.78659752 226.18086234 C28.75556139 215.20017431 28.73859238 204.2195072 28.72680578 193.23878357 C28.71440255 181.97474343 28.68662182 170.71081249 28.64538693 159.4468348 C28.62271025 153.11865052 28.60709304 146.79062323 28.60811615 140.46239471 C28.60885909 134.50997001 28.59105568 128.55789315 28.55883217 122.6055584 C28.55029121 120.41740186 28.54861147 118.22920649 28.55419731 116.04104042 C28.5607956 113.05988783 28.54301666 110.07985561 28.51898193 107.09881592 C28.52674235 106.22722202 28.53450277 105.35562812 28.54249835 104.45762229 C28.53105076 103.6589273 28.51960317 102.86023231 28.50780869 102.03733444 C28.5062898 101.3492812 28.50477092 100.66122797 28.50320601 99.95232463 C28.00228787 97.32463273 28.00228787 97.32463273 24 94 C16.08 93.67 8.16 93.34 0 93 C0 62.31 0 31.62 0 0 Z "
          fill="#0B4A17" transform="translate(170,225)"/>
    <path d="M0 0 C31.02 0 62.04 0 94 0 C94 68.64 94 137.28 94 208 C80.38713394 200.57480033 68.06872425 192.63662393 56 183 C55.07574219 182.27039063 54.15148437 181.54078125 53.19921875 180.7890625 C45.81228016 174.86668337 38.8613449 168.51624767 32 162 C31.17242187 161.21496094 30.34484375 160.42992187 29.4921875 159.62109375 C24.7367757 154.98995229 20.48313442 150.08660826 16.3359375 144.90625 C14.69436802 142.863896 13.04070741 140.84569952 11.3515625 138.84375 C10.9073999 138.31692627 10.4632373 137.79010254 10.00561523 137.24731445 C8.75885042 135.77193375 7.51033729 134.29803097 6.26171875 132.82421875 C5.51535156 131.89222656 4.76898438 130.96023438 4 130 C3.3027179 129.20056976 2.60543579 128.40113953 1.88702393 127.57748413 C-1.19640912 122.85627894 -0.52281084 117.37272915 -0.45410156 111.93603516 C-0.45468567 110.72571625 -0.45526978 109.51539734 -0.45587158 108.2684021 C-0.45356805 104.96268203 -0.43355808 101.65797055 -0.40557575 98.35242891 C-0.38051038 94.89313532 -0.37821608 91.43382718 -0.37347412 87.97445679 C-0.36105933 81.42965705 -0.32825831 74.88512571 -0.28807616 68.34044397 C-0.23891741 60.15539965 -0.21707102 51.97031142 -0.1953125 43.78515625 C-0.15639377 29.18989528 -0.07625949 14.59521967 0 0 Z "
          fill="#0B4A17" transform="translate(89,334)"/>
</svg>
